# MagicaVoxel @ ephtracy

# material
mtllib key.mtl
usemtl palette

# normals
vn -1 0 0
vn 1 0 0
vn 0 0 1
vn 0 0 -1
vn 0 -1 0
vn 0 1 0

# texcoords
vt 0.974609 0.5
vt 0.982422 0.5
vt 0.986328 0.5

# verts
v -22.5 0 20.5
v -22.5 0 17.5
v -22.5 22 20.5
v -22.5 22 17.5
v -21.5 1 21.5
v -21.5 1 20.5
v -21.5 21 21.5
v -21.5 21 20.5
v -20.5 2 22.5
v -20.5 2 21.5
v -20.5 20 22.5
v -20.5 20 21.5
v 20.5 2 21.5
v 20.5 2 20.5
v 20.5 20 21.5
v 20.5 20 20.5
v 21.5 1 20.5
v 21.5 1 17.5
v 21.5 21 20.5
v 21.5 21 17.5
v -21.5 1 20.5
v -21.5 1 17.5
v -21.5 21 20.5
v -21.5 21 17.5
v -20.5 2 21.5
v -20.5 2 20.5
v -20.5 20 21.5
v -20.5 20 20.5
v 20.5 2 22.5
v 20.5 2 21.5
v 20.5 20 22.5
v 20.5 20 21.5
v 21.5 1 21.5
v 21.5 1 20.5
v 21.5 21 21.5
v 21.5 21 20.5
v 22.5 0 20.5
v 22.5 0 17.5
v 22.5 22 20.5
v 22.5 22 17.5
v -20.5 2 22.5
v -20.5 20 22.5
v -16.5 10 22.5
v -16.5 12 22.5
v -15.5 9 22.5
v -15.5 10 22.5
v -15.5 12 22.5
v -15.5 13 22.5
v -14.5 8 22.5
v -14.5 9 22.5
v -14.5 10 22.5
v -14.5 12 22.5
v -14.5 13 22.5
v -14.5 14 22.5
v -13.5 7 22.5
v -13.5 8 22.5
v -13.5 9 22.5
v -13.5 13 22.5
v -13.5 14 22.5
v -13.5 15 22.5
v -12.5 6 22.5
v -12.5 7 22.5
v -12.5 8 22.5
v -12.5 14 22.5
v -12.5 15 22.5
v -12.5 16 22.5
v -11.5 5 22.5
v -11.5 6 22.5
v -11.5 7 22.5
v -11.5 15 22.5
v -11.5 16 22.5
v -11.5 17 22.5
v -10.5 6 22.5
v -10.5 9 22.5
v -10.5 12 22.5
v -10.5 16 22.5
v -9.5 5 22.5
v -9.5 8 22.5
v -9.5 13 22.5
v -9.5 17 22.5
v 15.5 9 22.5
v 15.5 12 22.5
v 16.5 8 22.5
v 16.5 13 22.5
v 20.5 2 22.5
v 20.5 20 22.5
v -21.5 1 21.5
v -21.5 21 21.5
v -20.5 2 21.5
v -20.5 20 21.5
v 20.5 2 21.5
v 20.5 20 21.5
v 21.5 1 21.5
v 21.5 21 21.5
v -22.5 0 20.5
v -22.5 22 20.5
v -21.5 1 20.5
v -21.5 21 20.5
v 21.5 1 20.5
v 21.5 21 20.5
v 22.5 0 20.5
v 22.5 22 20.5
v -20.5 2 21.5
v -20.5 20 21.5
v -16.5 10 21.5
v -16.5 12 21.5
v -15.5 9 21.5
v -15.5 10 21.5
v -15.5 12 21.5
v -15.5 13 21.5
v -14.5 8 21.5
v -14.5 9 21.5
v -14.5 10 21.5
v -14.5 12 21.5
v -14.5 13 21.5
v -14.5 14 21.5
v -13.5 7 21.5
v -13.5 8 21.5
v -13.5 9 21.5
v -13.5 13 21.5
v -13.5 14 21.5
v -13.5 15 21.5
v -12.5 6 21.5
v -12.5 7 21.5
v -12.5 8 21.5
v -12.5 14 21.5
v -12.5 15 21.5
v -12.5 16 21.5
v -11.5 5 21.5
v -11.5 6 21.5
v -11.5 7 21.5
v -11.5 15 21.5
v -11.5 16 21.5
v -11.5 17 21.5
v -10.5 6 21.5
v -10.5 9 21.5
v -10.5 12 21.5
v -10.5 16 21.5
v -9.5 5 21.5
v -9.5 8 21.5
v -9.5 13 21.5
v -9.5 17 21.5
v 15.5 9 21.5
v 15.5 12 21.5
v 16.5 8 21.5
v 16.5 13 21.5
v 20.5 2 21.5
v 20.5 20 21.5
v -21.5 1 20.5
v -21.5 21 20.5
v -20.5 2 20.5
v -20.5 20 20.5
v 20.5 2 20.5
v 20.5 20 20.5
v 21.5 1 20.5
v 21.5 21 20.5
v -22.5 0 17.5
v -22.5 22 17.5
v -21.5 1 17.5
v -21.5 21 17.5
v 21.5 1 17.5
v 21.5 21 17.5
v 22.5 0 17.5
v 22.5 22 17.5
v -22.5 0 20.5
v 22.5 0 20.5
v -22.5 0 17.5
v 22.5 0 17.5
v -21.5 1 21.5
v 21.5 1 21.5
v -21.5 1 20.5
v 21.5 1 20.5
v -20.5 2 22.5
v 20.5 2 22.5
v -20.5 2 21.5
v 20.5 2 21.5
v -20.5 20 21.5
v 20.5 20 21.5
v -20.5 20 20.5
v 20.5 20 20.5
v -21.5 21 20.5
v 21.5 21 20.5
v -21.5 21 17.5
v 21.5 21 17.5
v -21.5 1 20.5
v 21.5 1 20.5
v -21.5 1 17.5
v 21.5 1 17.5
v -20.5 2 21.5
v 20.5 2 21.5
v -20.5 2 20.5
v 20.5 2 20.5
v -20.5 20 22.5
v 20.5 20 22.5
v -20.5 20 21.5
v 20.5 20 21.5
v -21.5 21 21.5
v 21.5 21 21.5
v -21.5 21 20.5
v 21.5 21 20.5
v -22.5 22 20.5
v 22.5 22 20.5
v -22.5 22 17.5
v 22.5 22 17.5

# faces
f 3/2/1 2/2/1 1/2/1
f 4/2/1 2/2/1 3/2/1
f 7/3/1 6/3/1 5/3/1
f 8/3/1 6/3/1 7/3/1
f 11/3/1 10/3/1 9/3/1
f 12/3/1 10/3/1 11/3/1
f 15/3/1 14/3/1 13/3/1
f 16/3/1 14/3/1 15/3/1
f 19/2/1 18/2/1 17/2/1
f 20/2/1 18/2/1 19/2/1
f 21/2/2 22/2/2 23/2/2
f 23/2/2 22/2/2 24/2/2
f 25/3/2 26/3/2 27/3/2
f 27/3/2 26/3/2 28/3/2
f 29/3/2 30/3/2 31/3/2
f 31/3/2 30/3/2 32/3/2
f 33/3/2 34/3/2 35/3/2
f 35/3/2 34/3/2 36/3/2
f 37/2/2 38/2/2 39/2/2
f 39/2/2 38/2/2 40/2/2
f 43/3/3 42/3/3 41/3/3
f 44/3/3 42/3/3 43/3/3
f 45/3/3 43/3/3 41/3/3
f 46/1/3 44/1/3 43/1/3
f 46/3/3 43/3/3 45/3/3
f 47/3/3 42/3/3 44/3/3
f 47/1/3 44/1/3 46/1/3
f 48/3/3 42/3/3 47/3/3
f 49/3/3 45/3/3 41/3/3
f 50/1/3 46/1/3 45/1/3
f 50/3/3 45/3/3 49/3/3
f 51/2/3 47/2/3 46/2/3
f 51/1/3 46/1/3 50/1/3
f 52/1/3 48/1/3 47/1/3
f 52/2/3 47/2/3 51/2/3
f 53/3/3 42/3/3 48/3/3
f 53/1/3 48/1/3 52/1/3
f 54/3/3 42/3/3 53/3/3
f 55/3/3 49/3/3 41/3/3
f 56/1/3 50/1/3 49/1/3
f 56/3/3 49/3/3 55/3/3
f 57/2/3 52/2/3 51/2/3
f 57/1/3 50/1/3 56/1/3
f 57/2/3 51/2/3 50/2/3
f 57/2/3 53/2/3 52/2/3
f 58/1/3 54/1/3 53/1/3
f 58/2/3 53/2/3 57/2/3
f 59/3/3 42/3/3 54/3/3
f 59/1/3 54/1/3 58/1/3
f 60/3/3 42/3/3 59/3/3
f 61/3/3 55/3/3 41/3/3
f 62/1/3 56/1/3 55/1/3
f 62/3/3 55/3/3 61/3/3
f 63/2/3 58/2/3 57/2/3
f 63/1/3 56/1/3 62/1/3
f 63/2/3 57/2/3 56/2/3
f 63/2/3 59/2/3 58/2/3
f 64/1/3 60/1/3 59/1/3
f 64/2/3 59/2/3 63/2/3
f 65/3/3 42/3/3 60/3/3
f 65/1/3 60/1/3 64/1/3
f 66/3/3 42/3/3 65/3/3
f 67/3/3 61/3/3 41/3/3
f 68/1/3 62/1/3 61/1/3
f 68/3/3 61/3/3 67/3/3
f 69/2/3 64/2/3 63/2/3
f 69/1/3 62/1/3 68/1/3
f 69/2/3 63/2/3 62/2/3
f 69/2/3 65/2/3 64/2/3
f 70/1/3 66/1/3 65/1/3
f 70/2/3 65/2/3 69/2/3
f 71/3/3 42/3/3 66/3/3
f 71/1/3 66/1/3 70/1/3
f 72/3/3 42/3/3 71/3/3
f 73/2/3 70/2/3 69/2/3
f 73/1/3 68/1/3 67/1/3
f 73/2/3 69/2/3 68/2/3
f 73/2/3 71/2/3 70/2/3
f 74/2/3 71/2/3 73/2/3
f 75/2/3 71/2/3 74/2/3
f 76/1/3 72/1/3 71/1/3
f 76/2/3 71/2/3 75/2/3
f 77/3/3 67/3/3 41/3/3
f 77/1/3 73/1/3 67/1/3
f 77/1/3 74/1/3 73/1/3
f 78/1/3 74/1/3 77/1/3
f 79/1/3 76/1/3 75/1/3
f 80/1/3 72/1/3 76/1/3
f 80/1/3 76/1/3 79/1/3
f 80/3/3 42/3/3 72/3/3
f 81/2/3 75/2/3 74/2/3
f 81/1/3 74/1/3 78/1/3
f 82/1/3 79/1/3 75/1/3
f 82/2/3 75/2/3 81/2/3
f 83/1/3 81/1/3 78/1/3
f 83/3/3 78/3/3 77/3/3
f 83/1/3 82/1/3 81/1/3
f 84/1/3 79/1/3 82/1/3
f 84/1/3 82/1/3 83/1/3
f 84/3/3 80/3/3 79/3/3
f 85/3/3 83/3/3 77/3/3
f 85/3/3 77/3/3 41/3/3
f 85/3/3 84/3/3 83/3/3
f 86/3/3 80/3/3 84/3/3
f 86/3/3 84/3/3 85/3/3
f 86/3/3 42/3/3 80/3/3
f 89/3/3 88/3/3 87/3/3
f 90/3/3 88/3/3 89/3/3
f 91/3/3 89/3/3 87/3/3
f 92/3/3 88/3/3 90/3/3
f 93/3/3 91/3/3 87/3/3
f 93/3/3 92/3/3 91/3/3
f 94/3/3 88/3/3 92/3/3
f 94/3/3 92/3/3 93/3/3
f 97/2/3 96/2/3 95/2/3
f 98/2/3 96/2/3 97/2/3
f 99/2/3 97/2/3 95/2/3
f 100/2/3 96/2/3 98/2/3
f 101/2/3 99/2/3 95/2/3
f 101/2/3 100/2/3 99/2/3
f 102/2/3 96/2/3 100/2/3
f 102/2/3 100/2/3 101/2/3
f 103/3/4 104/3/4 105/3/4
f 105/3/4 104/3/4 106/3/4
f 103/3/4 105/3/4 107/3/4
f 105/1/4 106/1/4 108/1/4
f 107/3/4 105/3/4 108/3/4
f 106/3/4 104/3/4 109/3/4
f 108/1/4 106/1/4 109/1/4
f 109/3/4 104/3/4 110/3/4
f 103/3/4 107/3/4 111/3/4
f 107/1/4 108/1/4 112/1/4
f 111/3/4 107/3/4 112/3/4
f 108/2/4 109/2/4 113/2/4
f 112/1/4 108/1/4 113/1/4
f 109/1/4 110/1/4 114/1/4
f 113/2/4 109/2/4 114/2/4
f 110/3/4 104/3/4 115/3/4
f 114/1/4 110/1/4 115/1/4
f 115/3/4 104/3/4 116/3/4
f 103/3/4 111/3/4 117/3/4
f 111/1/4 112/1/4 118/1/4
f 117/3/4 111/3/4 118/3/4
f 113/2/4 114/2/4 119/2/4
f 118/1/4 112/1/4 119/1/4
f 112/2/4 113/2/4 119/2/4
f 114/2/4 115/2/4 119/2/4
f 115/1/4 116/1/4 120/1/4
f 119/2/4 115/2/4 120/2/4
f 116/3/4 104/3/4 121/3/4
f 120/1/4 116/1/4 121/1/4
f 121/3/4 104/3/4 122/3/4
f 103/3/4 117/3/4 123/3/4
f 117/1/4 118/1/4 124/1/4
f 123/3/4 117/3/4 124/3/4
f 119/2/4 120/2/4 125/2/4
f 124/1/4 118/1/4 125/1/4
f 118/2/4 119/2/4 125/2/4
f 120/2/4 121/2/4 125/2/4
f 121/1/4 122/1/4 126/1/4
f 125/2/4 121/2/4 126/2/4
f 122/3/4 104/3/4 127/3/4
f 126/1/4 122/1/4 127/1/4
f 127/3/4 104/3/4 128/3/4
f 103/3/4 123/3/4 129/3/4
f 123/1/4 124/1/4 130/1/4
f 129/3/4 123/3/4 130/3/4
f 125/2/4 126/2/4 131/2/4
f 130/1/4 124/1/4 131/1/4
f 124/2/4 125/2/4 131/2/4
f 126/2/4 127/2/4 131/2/4
f 127/1/4 128/1/4 132/1/4
f 131/2/4 127/2/4 132/2/4
f 128/3/4 104/3/4 133/3/4
f 132/1/4 128/1/4 133/1/4
f 133/3/4 104/3/4 134/3/4
f 131/2/4 132/2/4 135/2/4
f 129/1/4 130/1/4 135/1/4
f 130/2/4 131/2/4 135/2/4
f 132/2/4 133/2/4 135/2/4
f 135/2/4 133/2/4 136/2/4
f 136/2/4 133/2/4 137/2/4
f 133/1/4 134/1/4 138/1/4
f 137/2/4 133/2/4 138/2/4
f 103/3/4 129/3/4 139/3/4
f 129/1/4 135/1/4 139/1/4
f 135/1/4 136/1/4 139/1/4
f 139/1/4 136/1/4 140/1/4
f 137/1/4 138/1/4 141/1/4
f 138/1/4 134/1/4 142/1/4
f 141/1/4 138/1/4 142/1/4
f 134/3/4 104/3/4 142/3/4
f 136/2/4 137/2/4 143/2/4
f 140/1/4 136/1/4 143/1/4
f 137/1/4 141/1/4 144/1/4
f 143/2/4 137/2/4 144/2/4
f 140/1/4 143/1/4 145/1/4
f 139/3/4 140/3/4 145/3/4
f 143/1/4 144/1/4 145/1/4
f 144/1/4 141/1/4 146/1/4
f 145/1/4 144/1/4 146/1/4
f 141/3/4 142/3/4 146/3/4
f 139/3/4 145/3/4 147/3/4
f 103/3/4 139/3/4 147/3/4
f 145/3/4 146/3/4 147/3/4
f 146/3/4 142/3/4 148/3/4
f 147/3/4 146/3/4 148/3/4
f 142/3/4 104/3/4 148/3/4
f 149/3/4 150/3/4 151/3/4
f 151/3/4 150/3/4 152/3/4
f 149/3/4 151/3/4 153/3/4
f 152/3/4 150/3/4 154/3/4
f 149/3/4 153/3/4 155/3/4
f 153/3/4 154/3/4 155/3/4
f 154/3/4 150/3/4 156/3/4
f 155/3/4 154/3/4 156/3/4
f 157/2/4 158/2/4 159/2/4
f 159/2/4 158/2/4 160/2/4
f 157/2/4 159/2/4 161/2/4
f 160/2/4 158/2/4 162/2/4
f 157/2/4 161/2/4 163/2/4
f 161/2/4 162/2/4 163/2/4
f 162/2/4 158/2/4 164/2/4
f 163/2/4 162/2/4 164/2/4
f 167/2/5 166/2/5 165/2/5
f 168/2/5 166/2/5 167/2/5
f 171/3/5 170/3/5 169/3/5
f 172/3/5 170/3/5 171/3/5
f 175/3/5 174/3/5 173/3/5
f 176/3/5 174/3/5 175/3/5
f 179/3/5 178/3/5 177/3/5
f 180/3/5 178/3/5 179/3/5
f 183/2/5 182/2/5 181/2/5
f 184/2/5 182/2/5 183/2/5
f 185/2/6 186/2/6 187/2/6
f 187/2/6 186/2/6 188/2/6
f 189/3/6 190/3/6 191/3/6
f 191/3/6 190/3/6 192/3/6
f 193/3/6 194/3/6 195/3/6
f 195/3/6 194/3/6 196/3/6
f 197/3/6 198/3/6 199/3/6
f 199/3/6 198/3/6 200/3/6
f 201/2/6 202/2/6 203/2/6
f 203/2/6 202/2/6 204/2/6
